PathFileType	4	(X/Y/Z)	C:\Users\86182\Documents\cortex\Trimmed_M4_H15.trc
DataRate	CameraRate	NumFrames	NumMarkers	Units	OrigDataRate	OrigDataStartFrame	OrigNumFrames
100.00	100.00	       155	2	mm	100.00	181	       901
Frame#	Time	gripper			box			
		X1	Y1	Z1	X2	Y2	Z2	

181	1.800	276.46747	150.56378	233.08612	279.26761	147.45718	96.40891	
182	1.810	276.45242	150.57027	233.49138	279.21893	147.45206	96.82391	
183	1.820	276.45490	150.57245	233.89482	279.17572	147.44901	97.23721	
184	1.830	276.47064	150.57251	234.30084	279.14404	147.44794	97.65027	
185	1.840	276.49490	150.57233	234.71210	279.12704	147.44933	98.06667	
186	1.850	276.52264	150.57341	235.13072	279.12314	147.45421	98.49063	
187	1.860	276.55075	150.57703	235.55840	279.12790	147.46425	98.92400	
188	1.870	276.57867	150.58420	235.99539	279.13687	147.48033	99.36545	
189	1.880	276.60620	150.59538	236.44069	279.14722	147.50165	99.81335	
190	1.890	276.63135	150.61078	236.89296	279.15698	147.52705	100.26729	
191	1.900	276.65097	150.63069	237.35031	279.16382	147.55630	100.72656	
192	1.910	276.66333	150.65504	237.80991	279.16544	147.58855	101.18800	
193	1.920	276.66870	150.68286	238.26929	279.16098	147.62082	101.64569	
194	1.930	276.66830	150.71237	238.72668	279.15195	147.64963	102.09427	
195	1.940	276.66339	150.74159	239.17998	279.14099	147.67334	102.53310	
196	1.950	276.65497	150.76892	239.62706	279.12885	147.69231	102.96568	
197	1.960	276.64362	150.79353	240.06651	279.11298	147.70769	103.39431	
198	1.970	276.62952	150.81496	240.49738	279.08994	147.72044	103.81665	
199	1.980	276.61349	150.83278	240.91928	279.05899	147.73116	104.22916	
200	1.990	276.59683	150.84668	241.33405	279.02258	147.73941	104.63234	
201	2.000	276.58051	150.85672	241.74585	278.98511	147.74385	105.03151	
202	2.010	276.56564	150.86356	242.15894	278.95242	147.74376	105.43303	
203	2.020	276.55426	150.86760	242.57545	278.92996	147.74008	105.84085	
204	2.030	276.54840	150.86816	242.99548	278.91931	147.73500	106.25585	
205	2.040	276.54892	150.86424	243.41821	278.91803	147.73045	106.67754	
206	2.050	276.55515	150.85651	243.84326	278.92319	147.72701	107.10535	
207	2.060	276.56552	150.84744	244.27162	278.93533	147.72395	107.53911	
208	2.070	276.57739	150.83897	244.70441	278.95715	147.72063	107.97885	
209	2.080	276.58743	150.83089	245.14096	278.98843	147.71729	108.42299	
210	2.090	276.59225	150.82149	245.57986	279.02356	147.71486	108.86729	
211	2.100	276.58881	150.80969	246.02051	279.05545	147.71381	109.30748	
212	2.110	276.57431	150.79562	246.46194	279.08066	147.71352	109.74254	
213	2.120	276.54709	150.77924	246.90157	279.09888	147.71310	110.17427	
214	2.130	276.50839	150.75946	247.33646	279.10941	147.71266	110.60384	
215	2.140	276.46274	150.73595	247.76489	279.10931	147.71288	111.02974	
216	2.150	276.41492	150.71074	248.18684	279.09589	147.71388	111.44846	
217	2.160	276.36734	150.68724	248.60431	279.07019	147.71524	111.85672	
218	2.170	276.32043	150.66826	249.02002	279.03738	147.71686	112.25461	
219	2.180	276.27509	150.65459	249.43492	279.00311	147.71910	112.64677	
220	2.190	276.23386	150.64479	249.84792	278.97086	147.72191	113.04012	
221	2.200	276.20142	150.63686	250.25870	278.94238	147.72456	113.43874	
222	2.210	276.18225	150.63048	250.66957	278.91898	147.72633	113.84190	
223	2.220	276.17664	150.62756	251.08408	278.90082	147.72708	114.24777	
224	2.230	276.17966	150.62988	251.50449	278.88632	147.72719	114.65861	
225	2.240	276.18549	150.63698	251.93124	278.87451	147.72711	115.07993	
226	2.250	276.19211	150.64682	252.36368	278.86737	147.72713	115.51378	
227	2.260	276.20142	150.65727	252.80093	278.86801	147.72754	115.95563	
228	2.270	276.21506	150.66690	253.24213	278.87741	147.72903	116.39858	
229	2.280	276.23190	150.67523	253.68533	278.89285	147.73279	116.83913	
230	2.290	276.24869	150.68242	254.12697	278.91000	147.73972	117.27771	
231	2.300	276.26270	150.68863	254.56390	278.92609	147.74933	117.71539	
232	2.310	276.27301	150.69406	254.99637	278.94037	147.76001	118.15067	
233	2.320	276.28006	150.69904	255.42708	278.95139	147.77069	118.57970	
234	2.330	276.28400	150.70398	255.85736	278.95624	147.78107	119.00006	
235	2.340	276.28378	150.70924	256.28583	278.95331	147.79102	119.41362	
236	2.350	276.27832	150.71523	256.71069	278.94452	147.80022	119.82506	
237	2.360	276.26892	150.72231	257.13196	278.93353	147.80840	120.23787	
238	2.370	276.26010	150.73082	257.55081	278.92157	147.81525	120.65201	
239	2.380	276.25677	150.74036	257.96857	278.90726	147.82019	121.06532	
240	2.390	276.25961	150.74982	258.38525	278.89029	147.82295	121.47662	
241	2.400	276.26443	150.75854	258.80005	278.87408	147.82454	121.88710	
242	2.410	276.26743	150.76715	259.21393	278.86279	147.82649	122.29976	
243	2.420	276.26910	150.77618	259.63040	278.85715	147.82898	122.71828	
244	2.430	276.27191	150.78477	260.05255	278.85495	147.83115	123.14491	
245	2.440	276.27686	150.79140	260.48056	278.85452	147.83290	123.57866	
246	2.450	276.28387	150.79552	260.91299	278.85492	147.83565	124.01707	
247	2.460	276.29358	150.79843	261.34909	278.85367	147.84120	124.45979	
248	2.470	276.30731	150.80231	261.78873	278.84763	147.85114	124.90837	
249	2.480	276.32639	150.80838	262.23074	278.83636	147.86626	125.36273	
250	2.490	276.35071	150.81627	262.67328	278.82196	147.88564	125.81944	
251	2.500	276.37759	150.82510	263.11462	278.80505	147.90686	126.27431	
252	2.510	276.40213	150.83475	263.55350	278.78455	147.92786	126.72537	
253	2.520	276.41983	150.84544	263.98895	278.76001	147.94714	127.17299	
254	2.530	276.42892	150.85664	264.42020	278.73181	147.96259	127.61760	
255	2.540	276.43021	150.86691	264.84610	278.70007	147.97209	128.05823	
256	2.550	276.42551	150.87541	265.26575	278.66464	147.97583	128.49246	
257	2.560	276.41608	150.88313	265.67938	278.62488	147.97609	128.91876	
258	2.570	276.40253	150.89218	266.08856	278.58014	147.97484	129.33821	
259	2.580	276.38696	150.90361	266.49472	278.53116	147.97194	129.75351	
260	2.590	276.37360	150.91597	266.89954	278.47995	147.96552	130.16698	
261	2.600	276.36618	150.92616	267.30487	278.42850	147.95332	130.57968	
262	2.610	276.36627	150.93195	267.71198	278.37875	147.93478	130.99205	
263	2.620	276.37341	150.93320	268.12149	278.33386	147.91226	131.40518	
264	2.630	276.38550	150.93121	268.53418	278.29788	147.89001	131.82120	
265	2.640	276.39874	150.92702	268.95068	278.27405	147.87128	132.24208	
266	2.650	276.40958	150.92101	269.37122	278.26324	147.85701	132.66850	
267	2.660	276.41605	150.91353	269.79700	278.26437	147.84644	133.09950	
268	2.670	276.41788	150.90501	270.23038	278.27579	147.83852	133.53305	
269	2.680	276.41522	150.89594	270.67255	278.29541	147.83342	133.96735	
270	2.690	276.40839	150.88698	271.12213	278.32068	147.83292	134.40181	
271	2.700	276.39734	150.87917	271.57639	278.34833	147.83853	134.83713	
272	2.710	276.38120	150.87332	272.03247	278.37363	147.84923	135.27444	
273	2.720	276.35861	150.87013	272.48737	278.39166	147.86174	135.71384	
274	2.730	276.32935	150.87109	272.93921	278.40024	147.87376	136.15431	
275	2.740	276.29376	150.87880	273.38773	278.39914	147.88623	136.59538	
276	2.750	276.25201	150.89513	273.83270	278.38803	147.90179	137.03722	
277	2.760	276.20471	150.91940	274.27365	278.36722	147.92162	137.47858	
278	2.770	276.15469	150.94803	274.71039	278.34045	147.94464	137.91591	
279	2.780	276.10547	150.97643	275.14294	278.31360	147.96864	138.34607	
280	2.790	276.05835	151.00124	275.57166	278.29056	147.99136	138.76921	
281	2.800	276.01285	151.02086	275.99756	278.27216	148.01149	139.18791	
282	2.810	275.96844	151.03529	276.42120	278.25800	148.02966	139.60483	
283	2.820	275.92526	151.04472	276.84167	278.24698	148.04749	140.02179	
284	2.830	275.88419	151.04860	277.25867	278.23703	148.06569	140.43967	
285	2.840	275.84833	151.04715	277.67462	278.22672	148.08394	140.85861	
286	2.850	275.82150	151.04247	278.09280	278.21747	148.10115	141.27928	
287	2.860	275.80496	151.03667	278.51447	278.21329	148.11525	141.70323	
288	2.870	275.79797	151.03032	278.93896	278.21750	148.12425	142.13126	
289	2.880	275.80093	151.02365	279.36536	278.23050	148.12823	142.56158	
290	2.890	275.81470	151.01779	279.79327	278.25031	148.12904	142.99144	
291	2.900	275.83765	151.01392	280.22275	278.27411	148.12779	143.41954	
292	2.910	275.86621	151.01231	280.65359	278.29965	148.12398	143.84569	
293	2.920	275.89749	151.01236	281.08530	278.32556	148.11774	144.27005	
294	2.930	275.92932	151.01300	281.51703	278.34949	148.11179	144.69405	
295	2.940	275.95935	151.01378	281.94800	278.36667	148.11018	145.11969	
296	2.950	275.98502	151.01535	282.37711	278.37213	148.11522	145.54727	
297	2.960	276.00406	151.01834	282.80280	278.36539	148.12599	145.97517	
298	2.970	276.01563	151.02242	283.22357	278.35123	148.13988	146.40250	
299	2.980	276.02115	151.02701	283.63910	278.33441	148.15535	146.82971	
300	2.990	276.02289	151.03258	284.05051	278.31491	148.17249	147.25601	
301	3.000	276.02179	151.04027	284.45972	278.28970	148.19101	147.67838	
302	3.010	276.01727	151.05080	284.86832	278.25934	148.20901	148.09401	
303	3.020	276.00903	151.06351	285.27676	278.22974	148.22426	148.50212	
304	3.030	275.99847	151.07617	285.68512	278.20657	148.23633	148.90469	
305	3.040	275.98798	151.08652	286.09363	278.19006	148.24619	149.30612	
306	3.050	275.97897	151.09396	286.50320	278.17749	148.25427	149.71028	
307	3.060	275.97168	151.09904	286.91400	278.16815	148.26033	150.11694	
308	3.070	275.96680	151.10214	287.32410	278.16422	148.26393	150.52193	
309	3.080	275.96634	151.10303	287.72977	278.16718	148.26459	150.92197	
310	3.090	275.97302	151.10136	288.12784	278.17575	148.26259	151.31744	
311	3.100	275.98779	151.09766	288.51691	278.18784	148.25954	151.70880	
312	3.110	276.00861	151.09419	288.89597	278.20279	148.25732	152.09235	
313	3.120	276.03186	151.09370	289.26297	278.22079	148.25656	152.46164	
314	3.130	276.05414	151.09692	289.61487	278.24142	148.25644	152.81224	
315	3.140	276.07391	151.10185	289.94843	278.26334	148.25612	153.14384	
316	3.150	276.09290	151.10558	290.26160	278.28470	148.25615	153.45869	
317	3.160	276.11478	151.10661	290.55511	278.30438	148.25800	153.75896	
318	3.170	276.14203	151.10553	290.83206	278.32285	148.26212	154.04514	
319	3.180	276.17358	151.10391	291.09476	278.34177	148.26793	154.31578	
320	3.190	276.20468	151.10378	291.34232	278.36295	148.27489	154.56779	
321	3.200	276.22845	151.10745	291.57089	278.38693	148.28271	154.79631	
322	3.210	276.23969	151.11650	291.77524	278.41217	148.29094	154.99561	
323	3.220	276.23828	151.13057	291.95038	278.43597	148.29915	155.16138	
324	3.230	276.22839	151.14777	292.09354	278.45578	148.30737	155.29268	
325	3.240	276.21478	151.16612	292.20557	278.46967	148.31599	155.39230	
326	3.250	276.20120	151.18427	292.29074	278.47607	148.32532	155.46561	
327	3.260	276.19040	151.20146	292.35431	278.47430	148.33549	155.51880	
328	3.270	276.18369	151.21704	292.40088	278.46503	148.34612	155.55769	
329	3.280	276.18033	151.23021	292.43414	278.44992	148.35625	155.58727	
330	3.290	276.17899	151.24028	292.45700	278.43118	148.36461	155.61130	
331	3.300	276.17886	151.24701	292.47162	278.41122	148.36992	155.63197	
332	3.310	276.17966	151.25079	292.47989	278.39328	148.37129	155.64981	
333	3.320	276.18109	151.25237	292.48358	278.38110	148.36868	155.66394	
334	3.330	276.18277	151.25258	292.48444	278.37756	148.36310	155.67313	
335	3.340	276.18445	151.25217	292.48389	278.38330	148.35626	155.67673	
